<svg xmlns="http://www.w3.org/2000/svg" viewBox="0 0 920 500" font-family="Helvetica,Arial,sans-serif"><defs><marker id="a" markerWidth="10" markerHeight="10" refX="8" refY="3" orient="auto"><path d="M0,0 L8,3 L0,6 Z" fill="#64748b"/></marker></defs><text x="60" y="32" font-size="11" font-weight="700" letter-spacing="1.5" fill="#94a3b8">CAPTURE</text><rect x="360" y="42" width="200" height="56" rx="10" fill="#fde8d7" stroke="#c8642d" stroke-width="2"/><text x="460.0" y="66.0" text-anchor="middle" font-size="14" font-weight="700" fill="#0f172a">iPhone</text><text x="460.0" y="83.0" text-anchor="middle" font-size="11" fill="#475569">Hey Siri · Action Button · Back Tap</text><text x="60" y="128" font-size="11" font-weight="700" letter-spacing="1.5" fill="#94a3b8">STORE</text><rect x="60" y="138" width="800" height="66" rx="10" fill="#eef2ff" stroke="#6366f1" stroke-width="2"/><text x="460.0" y="167.0" text-anchor="middle" font-size="14" font-weight="700" fill="#0f172a">NOTION — single source of truth</text><text x="460.0" y="184.0" text-anchor="middle" font-size="11" fill="#475569">Inbox 📥 · PARA bases (Areas/Goals/Projects/Tasks/Ideas/Reviews) · Not Recognized · Outbox 📡</text><text x="60" y="250" font-size="11" font-weight="700" letter-spacing="1.5" fill="#94a3b8">BRAIN  (Steward)</text><rect x="60" y="262" width="240" height="72" rx="10" fill="#ecfdf5" stroke="#10b981" stroke-width="2"/><text x="180.0" y="294.0" text-anchor="middle" font-size="14" font-weight="700" fill="#0f172a">sort routine</text><text x="180.0" y="311.0" text-anchor="middle" font-size="11" fill="#475569">sweep → sort</text><text x="180.0" y="325.0" text-anchor="middle" font-size="11" fill="#475569">classify · file · enqueue</text><rect x="340" y="262" width="240" height="72" rx="10" fill="#ecfdf5" stroke="#10b981" stroke-width="2"/><text x="460.0" y="294.0" text-anchor="middle" font-size="14" font-weight="700" fill="#0f172a">executor routine</text><text x="460.0" y="311.0" text-anchor="middle" font-size="11" fill="#475569">Handler = Steward (MCP)</text><text x="460.0" y="325.0" text-anchor="middle" font-size="11" fill="#475569">Calendar/Docs/Sheets</text><text x="620" y="250" font-size="11" font-weight="700" letter-spacing="1.5" fill="#94a3b8">GATEWAY (separate repo)</text><rect x="620" y="262" width="240" height="72" rx="10" fill="#fef9c3" stroke="#eab308" stroke-width="2"/><text x="740.0" y="294.0" text-anchor="middle" font-size="14" font-weight="700" fill="#0f172a">Concierge Gateway</text><text x="740.0" y="311.0" text-anchor="middle" font-size="11" fill="#475569">Handler = Concierge Gateway</text><text x="740.0" y="325.0" text-anchor="middle" font-size="11" fill="#475569">Node.js · Telegram · no LLM</text><text x="60" y="408" font-size="11" font-weight="700" letter-spacing="1.5" fill="#94a3b8">EXTERNAL</text><rect x="340" y="420" width="240" height="56" rx="10" fill="#e0f2fe" stroke="#38bdf8" stroke-width="2"/><text x="460.0" y="444.0" text-anchor="middle" font-size="14" font-weight="700" fill="#0f172a">Google</text><text x="460.0" y="461.0" text-anchor="middle" font-size="11" fill="#475569">Calendar · Docs · Sheets</text><rect x="620" y="420" width="240" height="56" rx="10" fill="#e0f2fe" stroke="#38bdf8" stroke-width="2"/><text x="740.0" y="444.0" text-anchor="middle" font-size="14" font-weight="700" fill="#0f172a">Telegram</text><text x="740.0" y="461.0" text-anchor="middle" font-size="11" fill="#475569">logs / notifications</text><line x1="460" y1="98" x2="460" y2="138" stroke="#64748b" stroke-width="1.8" marker-end="url(#a)"/><text x="466" y="118.0" font-size="10" fill="#475569">dictate → REST</text><line x1="180" y1="262" x2="180" y2="206" stroke="#64748b" stroke-width="1.8" marker-end="url(#a)"/><line x1="180" y1="206" x2="180" y2="262" stroke="#64748b" stroke-width="1.8" marker-end="url(#a)"/><text x="186" y="234.0" font-size="10" fill="#475569">read/write · enqueue</text><line x1="460" y1="262" x2="460" y2="206" stroke="#64748b" stroke-width="1.8" marker-end="url(#a)"/><line x1="460" y1="206" x2="460" y2="262" stroke="#64748b" stroke-width="1.8" marker-end="url(#a)"/><text x="466" y="234.0" font-size="10" fill="#475569">read Outbox</text><line x1="740" y1="262" x2="740" y2="206" stroke="#64748b" stroke-width="1.8" marker-end="url(#a)"/><line x1="740" y1="206" x2="740" y2="262" stroke="#64748b" stroke-width="1.8" marker-end="url(#a)"/><text x="746" y="234.0" font-size="10" fill="#475569">read Outbox</text><line x1="460" y1="334" x2="460" y2="420" stroke="#64748b" stroke-width="1.8" marker-end="url(#a)"/><text x="466" y="377.0" font-size="10" fill="#475569">via MCP</text><line x1="740" y1="334" x2="740" y2="420" stroke="#64748b" stroke-width="1.8" marker-end="url(#a)"/><text x="746" y="377.0" font-size="10" fill="#475569">post</text></svg>