<svg xmlns="http://www.w3.org/2000/svg" viewBox="0 0 900 400" font-family="Helvetica,Arial,sans-serif"><defs><marker id="a" markerWidth="10" markerHeight="10" refX="8" refY="3" orient="auto"><path d="M0,0 L8,3 L0,6 Z" fill="#64748b"/></marker></defs><rect x="20" y="180" width="150" height="60" rx="10" fill="#fde8d7" stroke="#c8642d" stroke-width="2"/><text x="95.0" y="206.0" text-anchor="middle" font-size="14" font-weight="700" fill="#0f172a">Inbox 📥</text><text x="95.0" y="223.0" text-anchor="middle" font-size="11" fill="#475569">Status=New</text><rect x="250" y="40" width="170" height="46" rx="10" fill="#fff" stroke="#94a3b8" stroke-width="2"/><text x="335.0" y="68.0" text-anchor="middle" font-size="14" font-weight="700" fill="#0f172a">Projects</text><rect x="250" y="180" width="170" height="46" rx="10" fill="#eef2ff" stroke="#6366f1" stroke-width="2"/><text x="335.0" y="208.0" text-anchor="middle" font-size="14" font-weight="700" fill="#0f172a">Areas DB</text><rect x="250" y="320" width="170" height="46" rx="10" fill="#fff" stroke="#94a3b8" stroke-width="2"/><text x="335.0" y="348.0" text-anchor="middle" font-size="14" font-weight="700" fill="#0f172a">Resources</text><line x1="170" y1="203" x2="250" y2="203" stroke="#64748b" stroke-width="1.8" marker-end="url(#a)"/><line x1="170" y1="195" x2="250" y2="63" stroke="#64748b" stroke-width="1.6" marker-end="url(#a)"/><line x1="170" y1="225" x2="250" y2="343" stroke="#64748b" stroke-width="1.6" marker-end="url(#a)"/><rect x="500" y="20" width="150" height="34" rx="10" fill="#fff" stroke="#cbd5e1" stroke-width="2"/><text x="575.0" y="42.0" text-anchor="middle" font-size="14" font-weight="700" fill="#0f172a">Career</text><line x1="420" y1="203" x2="500" y2="37" stroke="#cbd5e1" stroke-width="1.2" marker-end="url(#a)"/><rect x="500" y="64" width="150" height="34" rx="10" fill="#fff" stroke="#cbd5e1" stroke-width="2"/><text x="575.0" y="86.0" text-anchor="middle" font-size="14" font-weight="700" fill="#0f172a">Health</text><line x1="420" y1="203" x2="500" y2="81" stroke="#cbd5e1" stroke-width="1.2" marker-end="url(#a)"/><rect x="500" y="108" width="150" height="34" rx="10" fill="#fff" stroke="#cbd5e1" stroke-width="2"/><text x="575.0" y="130.0" text-anchor="middle" font-size="14" font-weight="700" fill="#0f172a">Sport</text><line x1="420" y1="203" x2="500" y2="125" stroke="#cbd5e1" stroke-width="1.2" marker-end="url(#a)"/><rect x="500" y="152" width="150" height="34" rx="10" fill="#fff" stroke="#cbd5e1" stroke-width="2"/><text x="575.0" y="174.0" text-anchor="middle" font-size="14" font-weight="700" fill="#0f172a">Money</text><line x1="420" y1="203" x2="500" y2="169" stroke="#cbd5e1" stroke-width="1.2" marker-end="url(#a)"/><rect x="500" y="196" width="150" height="34" rx="10" fill="#fff" stroke="#cbd5e1" stroke-width="2"/><text x="575.0" y="218.0" text-anchor="middle" font-size="14" font-weight="700" fill="#0f172a">Family</text><line x1="420" y1="203" x2="500" y2="213" stroke="#cbd5e1" stroke-width="1.2" marker-end="url(#a)"/><rect x="500" y="240" width="150" height="34" rx="10" fill="#fff" stroke="#cbd5e1" stroke-width="2"/><text x="575.0" y="262.0" text-anchor="middle" font-size="14" font-weight="700" fill="#0f172a">Content</text><line x1="420" y1="203" x2="500" y2="257" stroke="#cbd5e1" stroke-width="1.2" marker-end="url(#a)"/><rect x="500" y="284" width="150" height="34" rx="10" fill="#fff" stroke="#cbd5e1" stroke-width="2"/><text x="575.0" y="306.0" text-anchor="middle" font-size="14" font-weight="700" fill="#0f172a">Other</text><line x1="420" y1="203" x2="500" y2="301" stroke="#cbd5e1" stroke-width="1.2" marker-end="url(#a)"/><rect x="700" y="60" width="170" height="46" rx="10" fill="#fff" stroke="#94a3b8" stroke-width="2"/><text x="785.0" y="79.0" text-anchor="middle" font-size="14" font-weight="700" fill="#0f172a">Goals</text><text x="785.0" y="96.0" text-anchor="middle" font-size="11" fill="#475569">→ Area</text><rect x="700" y="150" width="170" height="46" rx="10" fill="#fff" stroke="#94a3b8" stroke-width="2"/><text x="785.0" y="169.0" text-anchor="middle" font-size="14" font-weight="700" fill="#0f172a">Projects</text><text x="785.0" y="186.0" text-anchor="middle" font-size="11" fill="#475569">→ Area, Goal</text><rect x="700" y="240" width="170" height="46" rx="10" fill="#fff" stroke="#94a3b8" stroke-width="2"/><text x="785.0" y="259.0" text-anchor="middle" font-size="14" font-weight="700" fill="#0f172a">Tasks</text><text x="785.0" y="276.0" text-anchor="middle" font-size="11" fill="#475569">→ Project</text><rect x="700" y="330" width="170" height="46" rx="10" fill="#fff" stroke="#94a3b8" stroke-width="2"/><text x="785.0" y="349.0" text-anchor="middle" font-size="14" font-weight="700" fill="#0f172a">Ideas</text><text x="785.0" y="366.0" text-anchor="middle" font-size="11" fill="#475569">→ Area (opt)</text><line x1="700" y1="83" x2="652" y2="83" stroke="#94a3b8" stroke-width="1.4" marker-end="url(#a)"/><line x1="700" y1="173" x2="652" y2="173" stroke="#94a3b8" stroke-width="1.4" marker-end="url(#a)"/><line x1="700" y1="263" x2="652" y2="263" stroke="#94a3b8" stroke-width="1.4" marker-end="url(#a)"/><line x1="700" y1="353" x2="652" y2="353" stroke="#94a3b8" stroke-width="1.4" marker-end="url(#a)"/><text x="250" y="18" font-size="11" font-weight="700" letter-spacing="1.5" fill="#94a3b8">PARA — by actionability</text></svg>