<svg xmlns="http://www.w3.org/2000/svg" viewBox="0 0 900 464" font-family="Helvetica,Arial,sans-serif"><defs><marker id="a" markerWidth="10" markerHeight="10" refX="8" refY="3" orient="auto"><path d="M0,0 L8,3 L0,6 Z" fill="#64748b"/></marker></defs><rect x="70" y="24" width="560" height="46" rx="10" fill="#fde8d7" stroke="#c8642d" stroke-width="2"/><text x="350.0" y="52.0" text-anchor="middle" font-size="14" font-weight="700" fill="#0f172a">iPhone / Today  →  capture</text><circle cx="40" cy="47" r="15" fill="#c8642d"/><text x="40" y="52" text-anchor="middle" font-size="13" font-weight="700" fill="#fff">1</text><rect x="70" y="90" width="560" height="46" rx="10" fill="#ecfdf5" stroke="#10b981" stroke-width="2"/><text x="350.0" y="118.0" text-anchor="middle" font-size="14" font-weight="700" fill="#0f172a">sweep-daily-notes:  Today lines → Inbox [New]  (mark ✅)</text><circle cx="40" cy="113" r="15" fill="#10b981"/><text x="40" y="118" text-anchor="middle" font-size="13" font-weight="700" fill="#fff">2</text><line x1="350" y1="82" x2="350" y2="90" stroke="#64748b" stroke-width="1.8" marker-end="url(#a)"/><rect x="70" y="156" width="560" height="46" rx="10" fill="#ecfdf5" stroke="#10b981" stroke-width="2"/><text x="350.0" y="184.0" text-anchor="middle" font-size="14" font-weight="700" fill="#0f172a">sort-inbox:  read Inbox [New]</text><circle cx="40" cy="179" r="15" fill="#10b981"/><text x="40" y="184" text-anchor="middle" font-size="13" font-weight="700" fill="#fff">3</text><line x1="350" y1="148" x2="350" y2="156" stroke="#64748b" stroke-width="1.8" marker-end="url(#a)"/><rect x="70" y="222" width="560" height="46" rx="10" fill="#eef2ff" stroke="#6366f1" stroke-width="2"/><text x="350.0" y="250.0" text-anchor="middle" font-size="14" font-weight="700" fill="#0f172a">classify by taxonomy</text><circle cx="40" cy="245" r="15" fill="#6366f1"/><text x="40" y="250" text-anchor="middle" font-size="13" font-weight="700" fill="#fff">4</text><line x1="350" y1="214" x2="350" y2="222" stroke="#64748b" stroke-width="1.8" marker-end="url(#a)"/><rect x="20" y="294" width="210" height="52" rx="10" fill="#ecfdf5" stroke="#10b981" stroke-width="2"/><text x="125.0" y="325.0" text-anchor="middle" font-size="14" font-weight="700" fill="#0f172a">new → typed base</text><line x1="350" y1="280" x2="125" y2="294" stroke="#64748b" stroke-width="1.4" marker-end="url(#a)"/><rect x="240" y="294" width="210" height="52" rx="10" fill="#ecfdf5" stroke="#10b981" stroke-width="2"/><text x="345.0" y="325.0" text-anchor="middle" font-size="14" font-weight="700" fill="#0f172a">completion → close + notify</text><line x1="350" y1="280" x2="345" y2="294" stroke="#64748b" stroke-width="1.4" marker-end="url(#a)"/><rect x="460" y="294" width="210" height="52" rx="10" fill="#fef9c3" stroke="#eab308" stroke-width="2"/><text x="565.0" y="325.0" text-anchor="middle" font-size="14" font-weight="700" fill="#0f172a">external → enqueue Outbox</text><line x1="350" y1="280" x2="565" y2="294" stroke="#64748b" stroke-width="1.4" marker-end="url(#a)"/><rect x="680" y="294" width="210" height="52" rx="10" fill="#fee2e2" stroke="#ef4444" stroke-width="2"/><text x="785.0" y="325.0" text-anchor="middle" font-size="14" font-weight="700" fill="#0f172a">unsure → Not Recognized</text><line x1="350" y1="280" x2="785" y2="294" stroke="#64748b" stroke-width="1.4" marker-end="url(#a)"/><rect x="120" y="384" width="300" height="52" rx="10" fill="#ecfdf5" stroke="#10b981" stroke-width="2"/><text x="270.0" y="406.0" text-anchor="middle" font-size="14" font-weight="700" fill="#0f172a">Outbox  →  executor routine</text><text x="270.0" y="423.0" text-anchor="middle" font-size="11" fill="#475569">Handler=Steward · Calendar/Docs via MCP</text><rect x="470" y="384" width="300" height="52" rx="10" fill="#fef9c3" stroke="#eab308" stroke-width="2"/><text x="620.0" y="406.0" text-anchor="middle" font-size="14" font-weight="700" fill="#0f172a">Outbox  →  Concierge Gateway</text><text x="620.0" y="423.0" text-anchor="middle" font-size="11" fill="#475569">Handler=Gateway · Telegram log</text><line x1="235" y1="346" x2="235" y2="384" stroke="#64748b" stroke-width="1.4" marker-end="url(#a)"/><line x1="545" y1="346" x2="620" y2="384" stroke="#64748b" stroke-width="1.4" marker-end="url(#a)"/></svg>